<?xml version="1.0" encoding="UTF-8" standalone="no"?>
<!-- Created with Inkscape (http://www.inkscape.org/) -->

<svg
   width="210mm"
   height="297mm"
   viewBox="0 0 210 297"
   version="1.1"
   id="svg1"
   inkscape:version="1.3.2 (091e20e, 2023-11-25, custom)"
   sodipodi:docname="start.svg"
   xmlns:inkscape="http://www.inkscape.org/namespaces/inkscape"
   xmlns:sodipodi="http://sodipodi.sourceforge.net/DTD/sodipodi-0.dtd"
   xmlns="http://www.w3.org/2000/svg"
   xmlns:svg="http://www.w3.org/2000/svg">
  <sodipodi:namedview
     id="namedview1"
     pagecolor="#505050"
     bordercolor="#ffffff"
     borderopacity="1"
     inkscape:showpageshadow="0"
     inkscape:pageopacity="0"
     inkscape:pagecheckerboard="1"
     inkscape:deskcolor="#505050"
     inkscape:document-units="mm"
     inkscape:zoom="0.37282197"
     inkscape:cx="489.50978"
     inkscape:cy="350.03302"
     inkscape:window-width="1920"
     inkscape:window-height="1051"
     inkscape:window-x="-9"
     inkscape:window-y="-9"
     inkscape:window-maximized="1"
     inkscape:current-layer="layer1" />
  <defs
     id="defs1" />
  <g
     inkscape:label="Layer 1"
     inkscape:groupmode="layer"
     id="layer1">
    <path
       style="fill:#000000;stroke-width:0.264583"
       d="m 56.203585,72.26175 c 12.764865,0.507707 25.981588,-2.346317 38.639961,0.501817 12.619404,2.839365 25.627174,9.661819 34.625424,19.069074 1.19041,1.244517 1.59634,3.055955 2.50909,4.51636 0.76263,1.220211 2.03018,2.155823 2.50909,3.512722 1.17544,3.330427 1.00363,15.546007 1.00363,19.069077 0,5.18545 0,10.3709 0,15.55635 0,1.84 0.31718,3.70754 0,5.51999 -0.86021,4.91552 -2.12963,9.75799 -3.51272,14.55272 -1.12897,3.91377 -2.09334,7.94998 -4.01454,11.5418 -1.97237,3.68746 -4.91491,6.77091 -7.52727,10.03635 -5.93414,7.41768 -13.65331,16.06853 -23.083615,19.06908 -12.665078,4.0298 -25.18074,1.46033 -37.636328,-3.01091 -13.333846,-4.78651 -22.788282,-16.21209 -30.109062,-27.59997 -1.054865,-1.6409 -2.043081,-3.32448 -3.010905,-5.01818 -1.078375,-1.88715 -1.505455,-3.5215 -1.505455,-2.50909 0,0.52896 0.236789,1.04768 0.501818,1.50546 1.581317,2.73136 3.39438,5.32275 5.018178,8.02908 2.892981,4.82164 5.637919,9.73108 8.5309,14.55271 1.623798,2.70633 3.545043,5.23789 5.018177,8.02909 4.050376,7.67439 6.360337,16.06174 13.04726,22.07998 6.060914,5.45482 13.101116,7.70343 20.574526,10.53817 2.178394,0.82628 4.298971,1.81697 6.52363,2.50909 10.541291,3.27951 25.628596,9.00099 37.134516,5.01817 2.61652,-0.90572 5.00381,-2.3731 7.52726,-3.51272 18.33622,-8.28087 23.1006,-11.916 36.63269,-31.1127 3.14494,-4.46142 3.51273,-12.39274 3.51273,-17.56362 0,-11.01075 -0.42774,-21.40007 -3.51273,-32.11633 -1.59832,-5.55209 -4.41828,-10.67785 -6.52363,-16.05817 -2.41134,-6.16233 -4.55314,-12.42913 -7.02544,-18.56726 -2.37974,-5.9083 -4.86798,-11.775753 -7.52727,-17.563613 -0.74312,-1.61738 -1.00364,-0.540428 -1.00364,-2.007272"
       id="path1" />
    <path
       style="fill:#000000;stroke-width:0.264583"
       d="M 19.870967,37.612902 C 109.29032,26.258064 109.29032,26.258064 109.29032,26.258064 l 54.64516,7.806452 c 0,0 123.48388,-9.225807 -7.09677,42.580644 C 26.258064,128.45161 26.258064,128.45161 26.258064,128.45161 L 22.709677,70.258063"
       id="path2" />
  </g>
</svg>
