<svg width="450" height="450" viewBox="0 0 450 450" fill="none" xmlns="http://www.w3.org/2000/svg">
<mask id="path-1-inside-1_223_14" fill="white">
<path d="M225 29.0043C212.819 29.0324 200.637 29.5808 188.497 30.6812C181.123 31.3523 173.771 32.2587 166.454 33.3988C159.862 34.4699 153.317 35.7882 146.82 37.3539C141.188 38.725 135.612 40.3773 130.121 42.2687C127.742 43.1453 125.384 44.098 123.047 45.1269C119.984 46.4769 117.018 48.0191 114.149 49.7535C113.303 50.2691 112.47 50.8093 111.649 51.3742C108.914 53.2896 106.5 55.626 104.495 58.2964C103.72 59.4404 103.092 60.677 102.625 61.9773C102.052 63.7151 101.875 65.5586 102.104 67.3738C102.269 68.4988 102.576 69.5839 103.026 70.6293C103.518 71.7261 104.137 72.7738 104.878 73.7195C106.144 75.3789 107.585 76.8906 109.178 78.223C111.783 80.4239 114.636 82.3139 117.679 83.855C121.317 85.8066 125.099 87.4768 128.992 88.8507L127.744 89.2515C135.566 91.7576 143.493 93.9241 151.503 95.7449C159.522 97.5871 167.625 99.0707 175.781 100.196C183.924 101.335 192.122 102.119 200.349 102.544C208.559 102.968 216.784 103.026 225 102.72C232.991 102.941 240.996 102.818 248.977 102.351C256.951 101.853 264.901 101.021 272.806 99.8546C274.451 99.6437 276.047 99.3976 277.622 99.1796C279.764 98.8656 281.898 98.5316 284.024 98.1777C288.612 97.4622 293.173 96.5874 297.7 95.555C305.601 93.8194 313.386 91.5897 321.008 88.8789C324.137 87.6836 327.231 86.3652 330.251 84.8957C332.856 83.5979 335.378 82.1396 337.803 80.5293C339.788 79.1483 341.645 77.5904 343.35 75.8746C344.721 74.405 345.906 72.7457 346.824 70.9457C347.565 69.325 347.966 67.5671 348.005 65.7777C348.011 63.8291 347.519 61.9113 346.578 60.2054C345.91 58.8963 345.07 57.682 344.081 56.5949C342.973 55.3621 341.769 54.2183 340.481 53.1742C339.784 52.5791 339.064 52.0114 338.323 51.4726C336.647 50.3145 334.905 49.2545 333.106 48.298C328.877 45.9255 324.441 43.945 319.852 42.3812C311.3 39.3896 302.543 37.0209 293.65 35.2937C286.747 33.8861 279.793 32.745 272.802 31.873C265.143 30.8986 257.454 30.1845 249.747 29.732C241.506 29.2222 233.255 28.9937 225 29.0043ZM64.751 70.5062V379.494C64.751 411.248 135.257 436.996 222.747 437.502H225C313.496 437.502 385.249 412.496 385.249 379.494V70.5062C385.249 102.752 313.496 128.5 225 128.5C136.505 128.5 64.751 103.504 64.751 70.5062ZM142.506 198.756C151.021 198.415 159.508 199.776 167.502 202.753V224.244C160.193 219.146 151.408 216.598 142.506 216.995C138.77 216.818 135.078 217.874 132.001 220.001C130.782 220.821 129.795 221.942 129.138 223.256C128.48 224.57 128.175 226.033 128.25 227.5C128.19 228.967 128.424 230.43 128.939 231.805C129.453 233.18 130.238 234.438 131.246 235.505C135.045 238.768 139.355 241.385 144.004 243.25C151.844 246.494 158.913 251.351 164.753 257.506C168.902 262.38 171.125 268.603 171.004 275.003C171.491 279.174 170.998 283.401 169.566 287.349C168.133 291.296 165.799 294.855 162.749 297.742C154.116 303.712 143.731 306.618 133.253 305.997C123.968 306.325 114.754 304.259 106.499 299.996V276.747C114.008 283.435 123.69 287.168 133.745 287.252C137.685 287.445 141.597 286.491 145.006 284.506C146.242 283.625 147.25 282.461 147.945 281.111C148.64 279.761 149.003 278.265 149.003 276.747C148.997 275.222 148.659 273.716 148.011 272.335C147.363 270.954 146.421 269.731 145.252 268.752C140.477 265.119 135.269 262.094 129.748 259.745C112.746 252.246 104.752 242.248 104.752 229.504C104.612 225.227 105.49 220.979 107.315 217.108C109.14 213.238 111.858 209.856 115.246 207.243C123.024 201.242 132.696 198.23 142.506 198.756ZM232.499 199.744C241.262 199.682 249.886 201.928 257.506 206.255C265.024 210.685 271.1 217.195 275.003 225C279.858 233.038 282.69 242.135 283.254 251.508C283.54 262.573 280.678 273.491 275.003 282.994C269.234 292.141 260.351 298.891 249.993 302L280.755 329.492H250.503L228.997 304.499C220.161 304.179 211.555 301.597 204.001 297C196.568 292.653 190.572 286.223 186.754 278.505C182.856 270.741 180.802 262.182 180.753 253.495C180.598 243.613 182.827 233.839 187.249 225C191.447 217.222 197.778 210.804 205.499 206.501C213.732 201.872 223.056 199.538 232.499 199.744ZM299.996 200.008H322.503V284.998H361.505V303.251H299.996V200.008ZM231.497 217.255C227.762 217.239 224.071 218.061 220.696 219.66C217.321 221.26 214.348 223.597 211.996 226.498C206.734 233.732 204.168 242.578 204.743 251.505C204.152 260.43 206.72 269.278 211.996 276.501C214.22 279.403 217.105 281.733 220.41 283.297C223.716 284.861 227.347 285.614 231.001 285.494C234.628 285.604 238.23 284.872 241.526 283.354C244.821 281.836 247.72 279.575 249.993 276.747C255.378 269.493 257.875 260.497 256.999 251.505C257.548 242.645 255.171 233.87 250.256 226.498C248.16 223.503 245.342 221.085 242.062 219.469C238.783 217.853 235.149 217.094 231.497 217.255Z"/>
</mask>
<path d="M225 29.0043C212.819 29.0324 200.637 29.5808 188.497 30.6812C181.123 31.3523 173.771 32.2587 166.454 33.3988C159.862 34.4699 153.317 35.7882 146.82 37.3539C141.188 38.725 135.612 40.3773 130.121 42.2687C127.742 43.1453 125.384 44.098 123.047 45.1269C119.984 46.4769 117.018 48.0191 114.149 49.7535C113.303 50.2691 112.47 50.8093 111.649 51.3742C108.914 53.2896 106.5 55.626 104.495 58.2964C103.72 59.4404 103.092 60.677 102.625 61.9773C102.052 63.7151 101.875 65.5586 102.104 67.3738C102.269 68.4988 102.576 69.5839 103.026 70.6293C103.518 71.7261 104.137 72.7738 104.878 73.7195C106.144 75.3789 107.585 76.8906 109.178 78.223C111.783 80.4239 114.636 82.3139 117.679 83.855C121.317 85.8066 125.099 87.4768 128.992 88.8507L127.744 89.2515C135.566 91.7576 143.493 93.9241 151.503 95.7449C159.522 97.5871 167.625 99.0707 175.781 100.196C183.924 101.335 192.122 102.119 200.349 102.544C208.559 102.968 216.784 103.026 225 102.72C232.991 102.941 240.996 102.818 248.977 102.351C256.951 101.853 264.901 101.021 272.806 99.8546C274.451 99.6437 276.047 99.3976 277.622 99.1796C279.764 98.8656 281.898 98.5316 284.024 98.1777C288.612 97.4622 293.173 96.5874 297.7 95.555C305.601 93.8194 313.386 91.5897 321.008 88.8789C324.137 87.6836 327.231 86.3652 330.251 84.8957C332.856 83.5979 335.378 82.1396 337.803 80.5293C339.788 79.1483 341.645 77.5904 343.35 75.8746C344.721 74.405 345.906 72.7457 346.824 70.9457C347.565 69.325 347.966 67.5671 348.005 65.7777C348.011 63.8291 347.519 61.9113 346.578 60.2054C345.91 58.8963 345.07 57.682 344.081 56.5949C342.973 55.3621 341.769 54.2183 340.481 53.1742C339.784 52.5791 339.064 52.0114 338.323 51.4726C336.647 50.3145 334.905 49.2545 333.106 48.298C328.877 45.9255 324.441 43.945 319.852 42.3812C311.3 39.3896 302.543 37.0209 293.65 35.2937C286.747 33.8861 279.793 32.745 272.802 31.873C265.143 30.8986 257.454 30.1845 249.747 29.732C241.506 29.2222 233.255 28.9937 225 29.0043ZM64.751 70.5062V379.494C64.751 411.248 135.257 436.996 222.747 437.502H225C313.496 437.502 385.249 412.496 385.249 379.494V70.5062C385.249 102.752 313.496 128.5 225 128.5C136.505 128.5 64.751 103.504 64.751 70.5062ZM142.506 198.756C151.021 198.415 159.508 199.776 167.502 202.753V224.244C160.193 219.146 151.408 216.598 142.506 216.995C138.77 216.818 135.078 217.874 132.001 220.001C130.782 220.821 129.795 221.942 129.138 223.256C128.48 224.57 128.175 226.033 128.25 227.5C128.19 228.967 128.424 230.43 128.939 231.805C129.453 233.18 130.238 234.438 131.246 235.505C135.045 238.768 139.355 241.385 144.004 243.25C151.844 246.494 158.913 251.351 164.753 257.506C168.902 262.38 171.125 268.603 171.004 275.003C171.491 279.174 170.998 283.401 169.566 287.349C168.133 291.296 165.799 294.855 162.749 297.742C154.116 303.712 143.731 306.618 133.253 305.997C123.968 306.325 114.754 304.259 106.499 299.996V276.747C114.008 283.435 123.69 287.168 133.745 287.252C137.685 287.445 141.597 286.491 145.006 284.506C146.242 283.625 147.25 282.461 147.945 281.111C148.64 279.761 149.003 278.265 149.003 276.747C148.997 275.222 148.659 273.716 148.011 272.335C147.363 270.954 146.421 269.731 145.252 268.752C140.477 265.119 135.269 262.094 129.748 259.745C112.746 252.246 104.752 242.248 104.752 229.504C104.612 225.227 105.49 220.979 107.315 217.108C109.14 213.238 111.858 209.856 115.246 207.243C123.024 201.242 132.696 198.23 142.506 198.756ZM232.499 199.744C241.262 199.682 249.886 201.928 257.506 206.255C265.024 210.685 271.1 217.195 275.003 225C279.858 233.038 282.69 242.135 283.254 251.508C283.54 262.573 280.678 273.491 275.003 282.994C269.234 292.141 260.351 298.891 249.993 302L280.755 329.492H250.503L228.997 304.499C220.161 304.179 211.555 301.597 204.001 297C196.568 292.653 190.572 286.223 186.754 278.505C182.856 270.741 180.802 262.182 180.753 253.495C180.598 243.613 182.827 233.839 187.249 225C191.447 217.222 197.778 210.804 205.499 206.501C213.732 201.872 223.056 199.538 232.499 199.744ZM299.996 200.008H322.503V284.998H361.505V303.251H299.996V200.008ZM231.497 217.255C227.762 217.239 224.071 218.061 220.696 219.66C217.321 221.26 214.348 223.597 211.996 226.498C206.734 233.732 204.168 242.578 204.743 251.505C204.152 260.43 206.72 269.278 211.996 276.501C214.22 279.403 217.105 281.733 220.41 283.297C223.716 284.861 227.347 285.614 231.001 285.494C234.628 285.604 238.23 284.872 241.526 283.354C244.821 281.836 247.72 279.575 249.993 276.747C255.378 269.493 257.875 260.497 256.999 251.505C257.548 242.645 255.171 233.87 250.256 226.498C248.16 223.503 245.342 221.085 242.062 219.469C238.783 217.853 235.149 217.094 231.497 217.255Z" stroke="#C6C6C6" stroke-width="30" mask="url(#path-1-inside-1_223_14)"/>
</svg>
