<svg width="450" height="450" viewBox="0 0 450 450" fill="none" xmlns="http://www.w3.org/2000/svg">
<g clip-path="url(#clip0_214_24)">
<mask id="mask0_214_24" style="mask-type:luminance" maskUnits="userSpaceOnUse" x="0" y="0" width="450" height="450">
<path d="M0 0H450V450H0V0Z" fill="white"/>
</mask>
<g mask="url(#mask0_214_24)">
<path d="M122.197 49.0059L122.249 49.3652L122.25 49.7852L122.365 95.4004H231.394V122.888H72.7842L72.457 122.85C72.4581 122.85 72.4592 122.851 72.46 122.851C72.4634 122.851 72.466 122.851 72.4678 122.852H72.4658C72.4558 122.851 72.4287 122.848 72.3857 122.844C72.2994 122.836 72.1481 122.824 71.9365 122.811C71.5126 122.785 70.8481 122.756 69.9775 122.755C68.2333 122.753 65.6792 122.865 62.5889 123.328C56.4009 124.256 48.1632 126.583 39.9307 132.166C23.7937 143.11 6 167.782 6 224.419C6.00004 281.307 21.6385 307.241 35.7715 319.16C42.9124 325.183 49.9941 327.921 55.2256 329.166C57.847 329.79 60.0014 330.038 61.4541 330.133C62.1795 330.18 62.7269 330.188 63.0654 330.187C63.2343 330.186 63.3508 330.183 63.4111 330.181C63.4413 330.18 63.4575 330.179 63.459 330.179C63.4596 330.179 63.4573 330.178 63.4521 330.179L63.6123 330.169H95.8691V282.509C95.868 282.462 95.8664 282.399 95.8652 282.322C95.8628 282.167 95.8608 281.952 95.8613 281.682C95.8623 281.14 95.8734 280.374 95.9121 279.415C95.9894 277.5 96.1778 274.802 96.6182 271.58C97.4948 265.167 99.3944 256.514 103.532 247.781C107.683 239.02 114.143 230.071 124.154 223.33C134.199 216.567 147.434 212.287 164.682 212.287H272.842L272.89 212.288C272.904 212.288 272.93 212.288 272.969 212.288C273.051 212.288 273.188 212.287 273.375 212.284C273.75 212.278 274.327 212.262 275.077 212.221C276.58 212.139 278.766 211.959 281.404 211.567C286.71 210.779 293.685 209.157 300.582 205.861C307.456 202.577 314.129 197.695 319.096 190.416C324.035 183.178 327.544 173.198 327.544 159.263V59.5791L327.607 59.1582C327.608 59.1535 327.61 59.1474 327.61 59.1406C327.616 59.0916 327.628 58.9904 327.641 58.8408C327.667 58.5404 327.699 58.0465 327.707 57.3877C327.722 56.0673 327.639 54.1016 327.213 51.707C326.366 46.9406 324.166 40.4539 318.641 33.8799C307.653 20.8082 282.241 6.00003 223.388 6C166.903 6 142.056 18.3447 131.204 29.1514C125.811 34.5226 123.639 39.7289 122.757 43.415C122.31 45.2811 122.187 46.7956 122.166 47.7852C122.156 48.2789 122.171 48.6387 122.185 48.8418C122.19 48.9212 122.194 48.9765 122.197 49.0059ZM122.197 49.0059C122.198 49.014 122.199 49.0203 122.199 49.0244C122.199 49.0233 122.199 49.0219 122.199 49.0205C122.199 49.0167 122.198 49.0118 122.197 49.0059ZM63.4287 330.181L63.4375 330.18C63.4417 330.179 63.4453 330.18 63.4482 330.18L63.4287 330.181ZM163.275 28.6875C149.072 28.6875 137.662 40.2197 137.662 54.4121C137.662 68.5934 149.098 80.1191 163.275 80.1191C177.452 80.1189 188.888 68.5933 188.888 54.4121C188.887 40.2161 177.456 28.6877 163.275 28.6875Z" stroke="#C9C9C9" stroke-width="12"/>
<path d="M386.937 119.813C387.275 119.812 387.823 119.821 388.548 119.868C390.001 119.963 392.156 120.211 394.778 120.835C400.012 122.08 407.096 124.818 414.239 130.841C428.377 142.76 444.02 168.695 444.02 225.582C444.019 282.219 426.226 306.891 410.089 317.835C401.856 323.418 393.619 325.745 387.431 326.673C384.34 327.136 381.786 327.247 380.042 327.245C379.171 327.244 378.507 327.215 378.083 327.189C377.871 327.176 377.72 327.165 377.634 327.157C377.608 327.155 377.588 327.153 377.574 327.151H377.575L377.235 327.113H218.588V354.601H327.616L327.732 400.216L327.733 400.635L327.791 401.038L327.789 401.026C327.788 401.019 327.787 401.013 327.786 401.007C327.785 400.995 327.784 400.986 327.783 400.979C327.783 400.978 327.782 400.977 327.782 400.977C327.784 400.996 327.791 401.058 327.798 401.158C327.811 401.361 327.827 401.722 327.816 402.216C327.796 403.205 327.672 404.72 327.226 406.586C326.344 410.272 324.173 415.479 318.782 420.85C307.935 431.656 283.097 444 226.632 444C167.779 444 142.367 429.193 131.379 416.121C125.853 409.547 123.655 403.06 122.808 398.294C122.382 395.899 122.297 393.933 122.312 392.612C122.32 391.953 122.353 391.46 122.379 391.159C122.392 391.009 122.403 390.908 122.409 390.859L122.413 390.826L122.476 390.421V290.738C122.476 276.803 125.985 266.823 130.924 259.585C135.891 252.306 142.563 247.424 149.438 244.14C156.335 240.844 163.31 239.221 168.615 238.433C171.253 238.041 173.439 237.861 174.942 237.779C175.693 237.738 176.27 237.722 176.645 237.716C176.832 237.713 176.969 237.712 177.051 237.712H177.13L177.178 237.713H285.319C302.567 237.713 315.802 233.434 325.847 226.671C335.858 219.93 342.317 210.981 346.469 202.22C350.607 193.487 352.506 184.833 353.383 178.42C353.823 175.198 354.011 172.5 354.088 170.585C354.127 169.626 354.139 168.861 354.14 168.319C354.14 168.049 354.137 167.834 354.135 167.679L354.132 167.491V119.832H386.389L386.567 119.82C386.569 119.82 386.57 119.82 386.571 119.82L386.57 119.819C386.576 119.819 386.583 119.82 386.59 119.819C386.65 119.817 386.767 119.814 386.937 119.813ZM286.744 369.882C272.545 369.882 261.132 381.41 261.132 395.588C261.132 409.78 272.541 421.312 286.744 421.312C300.925 421.312 312.357 409.784 312.357 395.588C312.357 381.407 300.921 369.882 286.744 369.882ZM386.551 119.821C386.546 119.822 386.543 119.821 386.542 119.821C386.543 119.821 386.55 119.821 386.561 119.82C386.557 119.821 386.553 119.821 386.551 119.821Z" stroke="#C9C9C9" stroke-width="12"/>
</g>
</g>
<defs>
<clipPath id="clip0_214_24">
<rect width="450" height="450" fill="white"/>
</clipPath>
</defs>
</svg>
