<svg width="450" height="450" viewBox="0 0 450 450" fill="none" xmlns="http://www.w3.org/2000/svg">
<g clip-path="url(#clip0_214_172)">
<path d="M105.469 7.5H344.531C398.638 7.5 442.5 51.3621 442.5 105.469V344.531C442.5 398.638 398.638 442.5 344.531 442.5H105.469C51.3621 442.5 7.5 398.638 7.5 344.531V105.469C7.5 51.3621 51.3621 7.5 105.469 7.5Z" stroke="#C9C9C9" stroke-width="15"/>
<path d="M240.886 97.1484V316.227C218.509 320.23 201.436 321.829 183.063 321.829C153.346 321.828 132.044 315.095 118.242 303.127C104.63 291.323 97.1485 273.405 97.1484 248.328C97.1484 224.387 105.04 205.281 118.451 192.162C131.878 179.027 151.512 171.235 176.203 171.235C183.856 171.235 189.41 171.833 196.193 173.603L205.586 176.053V97.1484H240.886ZM205.586 201.436L200.455 199.728C193.697 197.478 187.981 196.733 181.104 196.733C166.796 196.733 154.571 201.18 145.979 210.384C137.457 219.514 133.428 232.345 133.428 247.346C133.428 261.983 137.275 274.475 145.764 283.323C154.3 292.221 166.465 296.328 180.777 296.328C186.729 296.328 191.649 295.968 199.097 294.955L205.586 294.072V201.436Z" stroke="#C9C9C9" stroke-width="15"/>
<path d="M320.904 174.825V283.926C320.904 323.981 317.909 341.617 310.019 356.521L309.992 356.571L309.966 356.622C303.094 370.09 294.309 378.987 275.367 388.902L245.634 374.763C260.169 366.33 269.153 357.406 275.338 344.767C283.419 328.611 285.606 310.246 285.606 266.616V174.825H320.904ZM320.904 97.416V134.021H285.606V97.416H320.904Z" stroke="#C9C9C9" stroke-width="15"/>
</g>
<defs>
<clipPath id="clip0_214_172">
<rect width="450" height="450" fill="white"/>
</clipPath>
</defs>
</svg>
