<svg width="450" height="360" viewBox="0 0 450 360" fill="none" xmlns="http://www.w3.org/2000/svg">
<g clip-path="url(#clip0_238_2)">
<path d="M281.32 136.968C273.656 138.937 267.328 139.992 260.859 142.312C255.727 143.648 250.523 145.054 244.547 146.601L244.125 146.671C241.172 147.515 240.891 147.585 238.149 144.421C234.844 140.695 232.453 138.304 227.883 136.054C214.031 129.304 200.672 131.273 188.227 139.359C173.32 148.992 165.656 163.265 165.867 180.984C166.078 198.562 178.102 212.976 194.836 215.367C210.305 217.335 222.82 212.132 232.664 200.953C234.141 199.125 235.477 197.226 236.953 195.117C237.516 194.414 238.008 193.64 238.57 192.796H196.313C191.742 192.796 190.617 189.984 192.164 186.257C194.977 179.437 200.25 168.046 203.344 162.351C203.977 161.085 205.524 158.273 208.195 158.273H279.281C282.445 148.851 287.578 139.359 294.469 130.359C310.43 109.335 329.133 98.3667 355.781 93.7964C378.141 89.8589 399.164 92.0386 418.289 104.976C435.586 116.789 446.274 132.82 449.156 153.843C452.883 183.445 444.305 207.492 423.352 228.093C409.5 242.789 391.781 252 371.391 256.148C367.453 256.851 363.586 257.203 359.789 257.554C357.75 257.695 355.781 257.906 353.813 258.117C333.914 257.695 315.703 252 300.375 238.851C289.617 229.5 282.164 218.039 278.508 204.75C275.906 209.882 272.883 214.875 268.664 219.585C253.477 240.398 232.875 253.336 206.859 256.781C185.344 259.664 165.445 255.515 147.867 242.367C131.695 230.062 122.484 213.89 120.094 193.71C117.211 169.804 124.242 147.726 138.656 129.515C154.266 109.125 174.867 96.1871 200.039 91.6168C220.641 87.2574 240.328 90.2808 258.117 102.375C269.719 110.039 278.016 120.515 283.5 133.242C284.836 135.211 283.922 136.336 281.32 136.968ZM33.961 140.906C33.0821 140.906 32.8641 140.484 33.3001 139.781L37.9055 133.875C38.3415 133.242 39.4383 132.82 40.3172 132.82H118.547C119.391 132.82 119.602 133.453 119.18 134.085L115.453 139.781C115.031 140.484 113.906 141.117 113.274 141.117L33.961 140.906ZM0.876146 161.086C5.20945e-05 161.086 -0.219323 160.593 0.219427 159.961L4.81997 154.054C5.25872 153.421 6.35419 152.929 7.22818 152.929H107.156C108 152.929 108.422 153.632 108.211 154.265L106.453 159.539C106.242 160.382 105.399 160.875 104.484 160.875L0.876146 161.086ZM53.2407 179.929C52.8047 180.562 53.0227 181.195 53.8946 181.195L101.672 181.406C102.305 181.406 103.219 180.773 103.219 179.929L103.641 174.656C103.641 173.742 103.219 173.109 102.305 173.109H58.5001C57.6212 173.109 56.7493 173.742 56.3063 174.445L53.2407 179.929ZM405.844 167.273C405.703 165.445 405.633 163.898 405.352 162.351C401.414 140.695 381.445 128.39 360.633 133.242C340.242 137.812 327.094 150.75 322.313 171.351C318.375 188.437 326.672 205.734 342.422 212.765C354.516 218.039 366.539 217.406 378.141 211.429C395.438 201.867 404.859 188.437 405.984 169.593C405.914 168.75 405.914 167.976 405.844 167.273Z" fill="#C6C6C6"/>
</g>
<defs>
<clipPath id="clip0_238_2">
<rect width="450" height="360" fill="white"/>
</clipPath>
</defs>
</svg>
