<svg width="450" height="450" viewBox="0 0 450 450" fill="none" xmlns="http://www.w3.org/2000/svg">
<path d="M280.417 54.5947C296.797 48.1184 311.265 47.9079 323.194 54.7715L323.2 54.7754L323.207 54.7783C335.217 61.641 342.303 74.2765 344.906 91.7227C347.517 109.22 345.497 130.975 339.764 154.832L338.653 159.45L343.209 160.795C366.695 167.73 386.508 176.827 400.345 187.808C414.142 198.756 421.562 211.187 421.562 225C421.562 238.813 414.142 251.244 400.345 262.192C386.508 273.173 366.695 282.27 343.209 289.205L338.653 290.55L339.764 295.168C345.497 319.025 347.517 340.78 344.906 358.277C342.303 375.723 335.217 388.359 323.207 395.222L323.2 395.225L323.194 395.229C311.265 402.092 296.797 401.882 280.417 395.405C263.991 388.911 246.2 376.299 228.449 359.381L225 356.093L221.551 359.381C203.801 376.299 186.01 388.91 169.562 395.404C153.169 401.877 138.649 402.097 126.618 395.229C114.701 388.372 107.654 375.739 105.071 358.284C102.482 340.783 104.503 319.025 110.236 295.168L111.347 290.55L106.791 289.205C83.3049 282.27 63.4924 273.173 49.6553 262.192C35.8582 251.244 28.4375 238.813 28.4375 225C28.4375 211.187 35.8582 198.756 49.6553 187.808C63.4924 176.827 83.3049 167.73 106.791 160.795L111.347 159.45L110.236 154.832C104.503 130.975 102.482 109.217 105.071 91.7158C107.654 74.2608 114.701 61.6281 126.618 54.7715L126.617 54.7705C138.648 47.9017 153.169 48.1228 169.562 54.5957C186.01 61.09 203.801 73.701 221.551 90.6191L225 93.9072L228.449 90.6191C246.2 73.7009 263.991 61.0891 280.417 54.5947ZM127.511 299.591C122.651 319.985 121.05 337.48 122.287 350.92C123.483 363.909 127.512 374.754 135.71 379.343C143.883 384.198 155.374 382.273 167.269 376.827C179.594 371.184 193.963 361.059 209.118 346.762L212.635 343.445L209.438 339.819C199.8 328.884 190.342 317.015 181.439 304.588L180.116 302.741L177.854 302.523L175.056 302.244C161.066 300.802 147.156 298.669 133.377 295.852L128.634 294.882L127.511 299.591ZM316.607 295.854C302.363 298.814 287.354 301.039 272.14 302.523L269.882 302.744L268.561 304.588C259.658 317.015 250.2 328.884 240.562 339.819L237.365 343.445L240.882 346.762C256.037 361.059 270.405 371.184 282.704 376.826C288.852 379.647 294.655 381.426 299.894 381.955C305.074 382.478 310.019 381.8 314.117 379.334C322.393 374.744 326.47 363.913 327.689 350.929C328.952 337.483 327.349 319.983 322.489 299.591L321.363 294.866L316.607 295.854ZM209.92 312.352C213.8 317.589 217.674 322.043 221.216 326.144L225 330.524L228.784 326.144C232.326 322.043 236.2 317.589 240.08 312.352L245.988 304.375H204.012L209.92 312.352ZM225 163.75C213.78 163.75 202.949 163.749 192.66 164.32L190.054 164.465L188.683 166.687C183.411 175.231 177.197 184.388 171.523 194.412L171.499 194.455L171.476 194.499L156.288 222.624L155.005 225L156.288 227.376L171.476 255.501L171.499 255.545L171.523 255.588C177.197 265.612 183.411 274.769 188.683 283.313L190.054 285.535L192.66 285.68C202.949 286.251 213.78 286.25 225 286.25C236.22 286.25 247.051 286.251 257.34 285.68L259.946 285.535L261.317 283.313C266.589 274.769 272.803 265.612 278.477 255.588L278.501 255.545L278.524 255.501L293.712 227.376L294.995 225L293.712 222.624L278.524 194.499L278.501 194.455L278.477 194.412L277.406 192.543C272.029 183.246 266.26 174.697 261.317 166.687L259.946 164.465L257.34 164.32L255.404 164.22C245.695 163.749 235.518 163.75 225 163.75ZM141.388 256.039C139.348 261.415 137.171 267.137 135.774 272.725L134.529 277.705L139.54 278.818C144.765 279.979 150.526 280.938 156.329 281.874L166.825 283.566L161.435 274.402L155.834 264.882L150.409 255.341L145.156 246.104L141.388 256.039ZM299.591 255.341L294.166 264.882L288.565 274.402L283.175 283.566L293.671 281.874C299.474 280.938 305.235 279.979 310.46 278.818L315.471 277.705L314.226 272.725C312.829 267.137 310.652 261.415 308.612 256.039L304.844 246.104L299.591 255.341ZM111.626 177.836C91.6123 183.84 75.6916 191.211 64.6562 199.029C53.9474 206.617 46.5625 215.563 46.5625 225C46.5625 234.437 53.9474 243.383 64.6562 250.971C75.6916 258.789 91.6122 266.16 111.626 272.164L116.29 273.563L117.812 268.938C122.434 254.887 127.989 240.994 134.304 227.064L135.24 225L134.304 222.936C127.989 209.006 122.434 195.113 117.812 181.062L116.29 176.437L111.626 177.836ZM332.188 181.062C327.566 195.113 322.011 209.006 315.696 222.936L314.76 225L315.696 227.064C322.011 240.994 327.566 254.887 332.188 268.938L333.71 273.563L338.374 272.164C358.388 266.16 374.308 258.789 385.344 250.971C396.053 243.383 403.438 234.437 403.438 225C403.437 215.563 396.053 206.617 385.344 199.029C374.308 191.211 358.388 183.84 338.374 177.836L333.71 176.437L332.188 181.062ZM225 194.562C241.516 194.562 255.062 208.039 255.062 225C255.062 240.971 241.569 254.688 225 254.688C208.431 254.688 194.938 240.971 194.938 225C194.938 208.039 208.484 194.562 225 194.562ZM156.329 168.126C150.526 169.062 144.765 170.021 139.54 171.182L134.529 172.295L135.774 177.275C137.171 182.863 139.348 188.585 141.388 193.961L145.156 203.896L150.409 194.659L155.847 185.097L161.435 175.598L166.825 166.434L156.329 168.126ZM288.565 175.598L294.152 185.097H294.153L299.591 194.659L304.844 203.896L308.612 193.961C310.652 188.585 312.829 182.863 314.226 177.275L315.471 172.295L310.46 171.182C305.235 170.021 299.474 169.062 293.671 168.126L283.175 166.434L288.565 175.598ZM314.117 70.665C310.02 68.1989 305.074 67.5219 299.894 68.0449C294.655 68.5738 288.852 70.3533 282.704 73.1738C270.405 78.8161 256.037 88.941 240.882 103.238L237.365 106.555L240.562 110.181C250.2 121.116 259.658 132.985 268.561 145.412L269.882 147.256L272.14 147.477C287.354 148.961 302.363 151.186 316.607 154.146L321.363 155.134L322.489 150.409C327.349 130.017 328.952 112.517 327.689 99.0713C326.47 86.0867 322.393 75.255 314.117 70.665ZM167.269 73.1729C155.37 67.7252 143.875 65.8007 135.701 70.6621C127.509 75.254 123.483 86.0965 122.287 99.0811C121.05 112.521 122.651 130.016 127.511 150.409L128.634 155.118L133.377 154.148C148.075 151.143 162.922 148.916 177.854 147.477L180.116 147.259L181.439 145.412C190.342 132.985 199.8 121.116 209.438 110.181L212.635 106.555L209.118 103.238C193.963 88.9411 179.594 78.8156 167.269 73.1729ZM221.216 123.857C217.674 127.958 213.8 132.411 209.92 137.648L204.012 145.625H245.988L240.08 137.648C236.2 132.411 232.326 127.958 228.784 123.857L225 119.476L221.216 123.857Z" stroke="#C9C9C9" stroke-width="10"/>
</svg>
