<svg width="450" height="271" viewBox="0 0 450 271" fill="none" xmlns="http://www.w3.org/2000/svg">
<g clip-path="url(#clip0_214_9)">
<path d="M112.5 141.148C139.367 141.148 158.653 147.375 173.822 156.12C188.173 164.394 199.064 175.03 209.499 185.604L211.581 187.718C224.862 201.212 238.254 215.04 257.293 219.805C273.454 223.849 288.87 222.875 303.303 216.683C310.193 213.726 316.763 209.62 323.026 204.425C315.81 220.782 306.219 233.602 294.374 243.088C276.931 257.058 253.984 264.296 225 264.296C198.133 264.296 178.847 258.069 163.678 249.324C148.37 240.499 136.999 228.985 125.919 217.727C112.638 204.232 99.2455 190.404 80.207 185.64C64.0456 181.595 48.6303 182.569 34.1973 188.762C27.3067 191.718 20.7365 195.823 14.4727 201.019C21.6889 184.662 31.2813 171.842 43.126 162.355C60.5689 148.386 83.5164 141.148 112.5 141.148ZM225 6C251.867 6 271.153 12.2267 286.322 20.9717C301.63 29.7966 313.001 41.3104 324.081 52.5693V52.5703C337.362 66.0646 350.754 79.8927 369.793 84.6572C385.954 88.702 401.37 87.7273 415.803 81.5352C422.693 78.5788 429.263 74.4717 435.526 69.2764C428.31 85.6334 418.719 98.4541 406.874 107.94C389.431 121.91 366.484 129.148 337.5 129.148C310.633 129.148 291.347 122.921 276.178 114.176C261.827 105.902 250.936 95.2657 240.501 84.6914L238.419 82.5781L235.926 80.0459C223.441 67.3904 210.556 54.9579 192.707 50.4912C176.546 46.4464 161.13 47.421 146.697 53.6133C139.807 56.5696 133.236 60.6749 126.973 65.8701C134.189 49.5135 143.781 36.6941 155.626 27.208C173.069 13.2384 196.016 6 225 6Z" stroke="#C9C9C9" stroke-width="12"/>
</g>
<defs>
<clipPath id="clip0_214_9">
<rect width="450" height="271" fill="white"/>
</clipPath>
</defs>
</svg>
