<svg width="450" height="450" viewBox="0 0 450 450" fill="none" xmlns="http://www.w3.org/2000/svg">
<path d="M287.625 165.188C264.418 165.188 242.08 172.858 224.537 187.341C215.638 194.627 208.251 203.213 202.875 212.932L202.858 212.961L202.843 212.99C197.518 222.821 194.002 233.741 192.967 245.333L192.966 245.35L192.964 245.366C191.977 257 193.53 268.709 197.513 279.684L197.521 279.707L197.529 279.729C201.65 290.855 208.223 301.313 217.011 310.305L217.042 310.336C235.213 328.711 260.605 339 287.625 339C314.881 339 340.07 328.49 358.208 310.148L358.298 310.057C367 300.95 373.583 290.714 377.721 279.542L377.742 279.484L377.763 279.427C381.648 268.384 383.307 256.856 382.48 245.278L382.472 245.146L382.457 245.014L382.336 243.942C381.02 232.933 377.613 222.034 372.172 212.715C366.989 203.018 359.793 194.43 350.874 187.133L350.851 187.113L350.826 187.094C333.141 172.864 311.032 165.188 287.625 165.188ZM289.5 206.438C302.33 206.438 314.097 211.044 322.676 218.314C331.325 225.833 337.076 236.02 337.698 247.529C338.322 259.253 333.661 270.322 325.138 278.692C316.27 287.221 303.73 292.5 289.5 292.5C275.213 292.5 262.513 287.184 253.879 278.71L253.878 278.709L253.089 277.916C245.057 269.642 240.696 258.89 241.302 247.524L241.305 247.477L241.307 247.429C241.77 235.995 247.479 225.853 256.292 218.342C264.874 211.055 276.654 206.438 289.5 206.438ZM152.625 274.554L152.62 274.42C152.547 272.362 152.775 269.25 153.076 266.376C153.221 264.998 153.371 263.771 153.485 262.891C153.542 262.452 153.59 262.101 153.623 261.864C153.639 261.746 153.652 261.655 153.66 261.597L153.672 261.521L156.468 242.346L141.491 254.641L60.9375 320.77C48.3976 330.684 34.6262 328.934 29.1543 322C23.8355 315.21 25.3127 302.016 37.5 292.875L37.5342 292.85L37.5684 292.823L186.256 178.636L203.832 165.138L181.671 165.188L98.6221 165.374C93.1172 165.373 89.2812 163.534 87.1963 161.41C85.2542 159.432 84.4398 156.885 85.2549 153.777L85.2803 153.679L85.3037 153.579C86.0883 150.216 88.618 146.653 92.7705 143.823C96.8842 141.02 102.08 139.312 107.25 139.312H107.463L271.15 138.75L292.257 138.678L275.838 125.415L222.246 82.1289C219.755 80.0727 219.17 77.9639 219.321 76.2852C219.485 74.4772 220.629 71.9834 223.826 69.7324C227.176 67.4696 231.478 66.1875 235.875 66.1875H238.948C241.9 66.606 244.727 67.7105 247.195 69.4297L376.245 168.512C388.444 177.882 398.339 189.011 406.125 201.575L406.186 201.673C414.947 215.341 420.397 230.423 422.693 246.452C423.721 254.541 423.748 262.703 423.749 271.387C422.668 279.705 421.074 287.929 418.646 296.096C413.536 312.289 404.902 327.453 392.881 340.712C380.451 354.382 365.186 365.566 347.417 373.385L347.383 373.4L347.349 373.415C328.819 381.789 308.309 386.25 287.625 386.25C266.709 386.25 246.402 381.959 228.113 373.614L228.067 373.593L228.021 373.572L226.355 372.827C209.227 365.035 194.366 354.282 182.368 341.087H182.369C170.329 327.807 161.706 312.825 156.604 296.473C154.287 288.794 152.625 279.103 152.625 274.688V274.554Z" stroke="#C9C9C9" stroke-width="15"/>
</svg>
