<svg width="500" height="500" viewBox="0 0 500 500" fill="none" xmlns="http://www.w3.org/2000/svg">
<mask id="path-1-inside-1_224_27" fill="white">
<path d="M241 20H259L270 24L294 37L315 49L340 63L365 77L390 91L413 104L438 118L449 126L455 134L460 146V354L455 366L448 375L438 382L416 394L393 407L368 421L345 434L320 448L295 462L272 475L263 479L259 480H241L230 476L206 463L185 451L160 437L135 423L112 410L87 396L62 382L51 374L45 366L40 354V146L45 134L52 125L62 118L84 106L107 93L132 79L157 65L180 52L205 38L228 25L237 21L241 20ZM249 130L229 132L210 137L192 145L177 155L165 166L158 173L148 187L140 202L134 220L131 235V265L135 284L141 300L150 316L160 329L173 342L189 353L205 361L220 366L235 369L251 370L271 368L290 363L306 356L320 347L330 339L341 328L344 324V322L318 307L303 298L299 300L291 307L279 314L267 318L262 319H238L226 316L210 308L198 297L191 288L184 274L181 262V238L184 226L192 210L203 198L212 191L226 184L238 181H262L274 184L290 192L301 202L306 200L332 185L344 178L342 174L335 166L327 158L311 147L295 139L280 134L265 131L249 130ZM330 220V240H310V260H330V280H350V260H370V240H350V220H330ZM400 220V240H380V260H400V280H420V260H440V240H420V220H400Z"/>
</mask>
<path d="M241 20H259L270 24L294 37L315 49L340 63L365 77L390 91L413 104L438 118L449 126L455 134L460 146V354L455 366L448 375L438 382L416 394L393 407L368 421L345 434L320 448L295 462L272 475L263 479L259 480H241L230 476L206 463L185 451L160 437L135 423L112 410L87 396L62 382L51 374L45 366L40 354V146L45 134L52 125L62 118L84 106L107 93L132 79L157 65L180 52L205 38L228 25L237 21L241 20ZM249 130L229 132L210 137L192 145L177 155L165 166L158 173L148 187L140 202L134 220L131 235V265L135 284L141 300L150 316L160 329L173 342L189 353L205 361L220 366L235 369L251 370L271 368L290 363L306 356L320 347L330 339L341 328L344 324V322L318 307L303 298L299 300L291 307L279 314L267 318L262 319H238L226 316L210 308L198 297L191 288L184 274L181 262V238L184 226L192 210L203 198L212 191L226 184L238 181H262L274 184L290 192L301 202L306 200L332 185L344 178L342 174L335 166L327 158L311 147L295 139L280 134L265 131L249 130ZM330 220V240H310V260H330V280H350V260H370V240H350V220H330ZM400 220V240H380V260H400V280H420V260H440V240H420V220H400Z" stroke="#C9C9C9" stroke-width="30" mask="url(#path-1-inside-1_224_27)"/>
</svg>
