<svg width="450" height="450" viewBox="0 0 450 450" fill="none" xmlns="http://www.w3.org/2000/svg">
<g clip-path="url(#clip0_214_22)">
<path d="M56.25 7.5H393.75C406.679 7.5 419.079 12.6359 428.222 21.7783C437.364 30.9207 442.5 43.3207 442.5 56.25V393.75C442.5 406.679 437.364 419.079 428.222 428.222C419.079 437.364 406.679 442.5 393.75 442.5H56.25C43.3207 442.5 30.9207 437.364 21.7783 428.222C12.6359 419.079 7.5 406.679 7.5 393.75V56.25C7.5 43.3207 12.6359 30.9207 21.7783 21.7783C30.9207 12.6359 43.3207 7.5 56.25 7.5ZM247.115 301.584L246.919 350.829V350.859C246.919 359.463 245.277 364.655 243.137 367.578C241.285 370.107 238.471 371.765 233.453 371.905C229.293 371.886 226.741 370.64 224.927 368.583L224.571 368.158C222.57 365.617 220.997 361.141 220.997 353.588V341.166H171.656V353.869C171.656 367.261 174.202 379.053 179.741 388.86L179.747 388.869C185.226 398.538 192.88 405.915 202.629 410.805V410.806C212.098 415.648 222.828 417.956 234.619 417.956C252.601 417.956 267.776 412.824 279.318 401.896C291.17 390.693 296.479 374.496 296.484 354.714L296.682 305.439V206.138H247.115V301.584ZM361.716 203.1C349.694 203.1 338.909 205.614 329.661 210.974L329.629 210.992L329.597 211.012C320.771 216.245 313.603 223.866 308.918 232.995L308.907 233.016L308.896 233.037C303.975 242.779 301.526 253.581 301.763 264.491C301.77 279.447 304.67 292.184 311.31 301.905L311.364 301.984L311.421 302.063C318.093 311.312 328.361 318.872 341.511 325.051L341.542 325.065L341.574 325.08L354.766 331.127L354.861 331.171L354.959 331.213C362.337 334.346 366.828 337.622 369.284 340.671L369.516 340.966C371.738 343.913 373.172 348.132 373.172 354.263C373.172 362.644 371.663 367.285 369.968 369.582L369.907 369.664L369.849 369.748C368.798 371.257 366.646 372.834 361.182 372.834H361.16C356.282 372.847 353.578 371.317 351.771 368.937L351.753 368.913L351.557 368.648C349.54 365.838 347.849 360.688 347.526 352.042L347.257 344.822H299.698L299.852 352.473C300.248 372.238 305.212 388.527 315.796 400.218L315.801 400.224L315.807 400.229C326.577 412.078 341.835 417.506 360.338 417.506C378.857 417.506 394.272 412.183 405.545 400.688H405.546C416.838 389.173 421.95 373.117 421.95 353.7C421.95 337.563 418.65 323.814 411.276 313.175C404.261 303.053 393.639 295.073 380.045 288.941L378.721 288.354L366.095 282.842L366.062 282.828L366.031 282.814L364.802 282.276C358.818 279.583 355.274 276.853 353.393 274.417L353.383 274.403L353.052 273.954C351.429 271.629 350.287 268.126 350.287 262.8C350.287 256.252 351.646 252.748 353.084 250.97C354.64 249.317 357.143 248.053 361.716 248.053C366.797 248.053 368.684 249.583 369.652 251.124L369.706 251.21L369.763 251.295C371.574 254.012 373.109 258.986 373.46 267.226L373.767 274.406H420.271L420.034 266.676C419.44 247.335 414.478 231.435 404.085 220.129H404.086C393.57 208.539 379.104 203.1 361.716 203.1Z" stroke="#C9C9C9" stroke-width="15"/>
</g>
<defs>
<clipPath id="clip0_214_22">
<rect width="450" height="450" fill="white"/>
</clipPath>
</defs>
</svg>
