<svg width="450" height="450" viewBox="0 0 450 450" fill="none" xmlns="http://www.w3.org/2000/svg">
<path d="M225.001 56.25L371.138 140.625V287.719C371.138 294.301 369.405 300.768 366.114 306.468C362.823 312.169 358.089 316.903 352.388 320.194L243.751 382.931C238.05 386.223 231.583 387.955 225.001 387.955C218.418 387.955 211.952 386.223 206.251 382.931L97.6133 320.194C91.9127 316.903 87.1789 312.169 83.8876 306.468C80.5963 300.768 78.8634 294.301 78.8633 287.719V140.625L225.001 56.25Z" stroke="#C9C9C9" stroke-width="15" stroke-linecap="round" stroke-linejoin="round"/>
<path d="M225 131.25V225M225 225L143.812 271.875M225 225L306.188 271.875" stroke="#C9C9C9" stroke-width="15" stroke-linecap="round" stroke-linejoin="round"/>
</svg>
