<svg width="450" height="450" viewBox="0 0 450 450" fill="none" xmlns="http://www.w3.org/2000/svg">
<mask id="path-1-inside-1_225_30" fill="white">
<path d="M299.531 84.375C298.412 84.375 297.339 84.8195 296.548 85.6106C295.757 86.4018 295.312 87.4749 295.312 88.5938V165.895L277.791 155.672C276.708 155.034 275.475 154.697 274.219 154.697C272.962 154.697 271.729 155.034 270.647 155.672L228.544 180.225C227.463 180.842 226.566 181.735 225.944 182.812C225.321 183.889 224.995 185.112 225 186.356V235.519C225 238.05 226.35 240.384 228.544 241.65L270.647 266.203C271.729 266.841 272.962 267.178 274.219 267.178C275.475 267.178 276.708 266.841 277.791 266.203L319.894 241.65C320.974 241.033 321.871 240.14 322.494 239.063C323.116 237.986 323.442 236.763 323.438 235.519V101.672C323.435 100.445 323.112 99.2404 322.501 98.1771C321.889 97.1139 321.01 96.2292 319.95 95.6109L301.627 84.9516C300.995 84.5821 300.277 84.3834 299.545 84.375H299.531ZM161.719 154.716C160.464 154.71 159.231 155.04 158.147 155.672L116.044 180.225C114.963 180.842 114.066 181.735 113.444 182.812C112.821 183.889 112.495 185.112 112.5 186.356V235.519C112.5 238.05 113.85 240.384 116.044 241.65L158.147 266.203C160.355 267.469 163.069 267.469 165.291 266.203L207.394 241.65C208.474 241.033 209.371 240.14 209.994 239.063C210.616 237.986 210.942 236.763 210.938 235.519V186.356C210.942 185.112 210.616 183.889 209.994 182.812C209.371 181.735 208.474 180.842 207.394 180.225L165.291 155.672C164.207 155.04 162.973 154.71 161.719 154.716ZM386.719 154.716C385.464 154.71 384.231 155.04 383.147 155.672L341.044 180.225C339.963 180.842 339.066 181.735 338.444 182.812C337.821 183.889 337.495 185.112 337.5 186.356V235.519C337.5 238.05 338.85 240.384 341.044 241.65L381.881 266.33C382.962 266.982 384.198 267.331 385.459 267.341C386.721 267.351 387.963 267.021 389.053 266.386L409.134 254.714C409.607 254.436 409.998 254.039 410.27 253.563C410.542 253.087 410.686 252.548 410.686 252C410.686 251.452 410.542 250.913 410.27 250.437C409.998 249.961 409.607 249.564 409.134 249.286L365.625 223.65V198.422L386.719 186.145L407.812 198.422V216C407.812 218.348 409.781 218.714 411.103 217.927L432.45 205.509C433.51 204.891 434.389 204.006 435.001 202.943C435.612 201.88 435.935 200.675 435.938 199.448V186.37C435.942 185.126 435.616 183.903 434.994 182.826C434.371 181.749 433.474 180.856 432.394 180.239L390.291 155.686C389.207 155.054 387.973 154.724 386.719 154.73V154.716ZM49.2188 154.744C47.9641 154.738 46.7309 155.068 45.6469 155.7L3.54375 180.225C2.46889 180.855 1.5768 181.755 0.9554 182.835C0.333996 183.915 0.00471404 185.138 0 186.384L0 249.145C0 252.211 3.31875 254.109 5.9625 252.577L24.6375 241.706C25.6991 241.087 26.5797 240.2 27.1916 239.134C27.8035 238.068 28.1254 236.86 28.125 235.631V198.464L49.2188 186.159L70.3125 198.464V235.631C70.3146 236.858 70.6376 238.063 71.2494 239.126C71.8612 240.189 72.7405 241.074 73.8 241.692L92.475 252.577C93.078 252.928 93.763 253.114 94.461 253.116C95.1589 253.118 95.8449 252.936 96.4499 252.588C97.0548 252.239 97.5571 251.738 97.9061 251.133C98.2551 250.529 98.4384 249.843 98.4375 249.145V186.384C98.4328 185.138 98.1035 183.915 97.4821 182.835C96.8607 181.755 95.9686 180.855 94.8938 180.225L52.7906 155.7C51.7066 155.068 50.4734 154.738 49.2188 154.744ZM274.219 186.131L295.312 198.436V223.439L274.219 235.744L253.125 223.439V198.422L274.219 186.117V186.131ZM386.719 196.931L374.667 203.963V217.997L386.719 225L398.77 217.997V203.963L386.719 196.931ZM216.647 253.097C215.186 253.085 213.746 253.454 212.47 254.166L172.927 277.031C171.658 277.757 170.603 278.805 169.87 280.07C169.137 281.334 168.75 282.77 168.75 284.231V329.878C168.75 332.817 170.395 335.587 172.927 337.078L183.333 343.013C188.325 345.473 190.167 345.473 192.431 345.473C199.884 345.473 204.131 341.016 204.131 333.141V288.042C204.139 287.887 204.115 287.733 204.06 287.588C204.005 287.443 203.921 287.311 203.813 287.2C203.704 287.089 203.574 287.001 203.431 286.943C203.287 286.885 203.133 286.857 202.978 286.861H197.972C197.659 286.861 197.358 286.985 197.137 287.207C196.915 287.428 196.791 287.729 196.791 288.042V333.141C196.791 336.558 193.177 340.073 187.284 337.134L176.456 330.891C176.28 330.779 176.133 330.626 176.03 330.445C175.927 330.263 175.871 330.059 175.866 329.85V284.203C175.866 283.795 176.062 283.317 176.47 283.106L216.014 260.311C216.203 260.205 216.416 260.149 216.633 260.149C216.849 260.149 217.063 260.205 217.252 260.311L256.837 283.092C257.245 283.317 257.442 283.725 257.442 284.203V329.85C257.433 330.067 257.374 330.279 257.269 330.469C257.164 330.66 257.016 330.823 256.837 330.947L217.252 353.827C217.063 353.932 216.849 353.988 216.633 353.988C216.416 353.988 216.203 353.932 216.014 353.827L205.917 347.808C205.636 347.667 205.214 347.597 204.947 347.738C203.095 348.921 201.088 349.844 198.984 350.48C198.295 350.691 197.367 351.113 199.35 352.209L212.47 360.014C213.753 360.713 215.186 361.09 216.647 361.111C218.101 361.122 219.53 360.722 220.767 359.958L260.325 337.078C261.594 336.352 262.648 335.304 263.382 334.04C264.115 332.775 264.501 331.34 264.502 329.878V284.231C264.487 282.772 264.095 281.342 263.363 280.08C262.631 278.818 261.584 277.768 260.325 277.031L220.767 254.18C219.508 253.477 218.089 253.109 216.647 253.111V253.097ZM278.339 274.163C277.342 274.164 276.355 274.363 275.434 274.746C274.514 275.129 273.677 275.69 272.974 276.397C272.27 277.103 271.712 277.941 271.332 278.863C270.952 279.785 270.758 280.773 270.759 281.77C270.761 282.768 270.959 283.755 271.343 284.675C271.726 285.596 272.287 286.432 272.993 287.136C273.7 287.84 274.538 288.397 275.46 288.777C276.382 289.157 277.37 289.352 278.367 289.35C280.381 289.346 282.311 288.543 283.733 287.116C285.154 285.689 285.951 283.756 285.947 281.742C285.943 279.728 285.139 277.798 283.713 276.377C282.286 274.955 280.353 274.159 278.339 274.163ZM278.255 275.372C281.827 275.372 284.723 278.184 284.723 281.742C284.698 283.45 284.008 285.081 282.801 286.288C281.593 287.496 279.962 288.186 278.255 288.211C276.556 288.192 274.935 287.501 273.746 286.288C272.557 285.075 271.897 283.441 271.913 281.742C271.907 280.906 272.067 280.078 272.383 279.304C272.7 278.531 273.166 277.828 273.756 277.235C274.346 276.643 275.047 276.173 275.819 275.854C276.591 275.534 277.419 275.37 278.255 275.372ZM275.484 277.439V285.975H277.102V282.572H278.62C279.239 282.572 279.38 282.825 279.52 283.303C279.52 283.373 279.773 285.595 279.844 286.003H281.602C281.377 285.262 281.24 284.498 281.194 283.725C280.997 282.628 280.941 281.869 279.773 281.798C280.392 281.588 281.419 281.264 281.419 279.689C281.419 277.425 279.45 277.439 278.423 277.439H275.484ZM277.102 278.803H278.48C278.902 278.803 279.717 278.803 279.717 279.956C279.717 280.434 279.506 281.222 278.395 281.194H277.102V278.803ZM227.25 285.778C215.958 285.778 209.25 290.602 209.25 298.533C209.25 307.223 215.972 309.544 226.786 310.627C239.723 311.934 240.736 313.791 240.736 316.322C240.736 320.766 237.164 322.608 228.811 322.608C218.334 322.608 216.042 320.02 215.283 314.817C215.212 314.255 214.72 313.847 214.102 313.847H208.955C208.8 313.843 208.646 313.871 208.502 313.929C208.358 313.987 208.228 314.075 208.12 314.186C208.012 314.297 207.928 314.429 207.873 314.574C207.818 314.719 207.794 314.873 207.802 315.028C207.802 321.666 211.43 329.611 228.741 329.611C241.439 329.611 248.625 324.689 248.625 316.055C248.625 307.505 242.859 305.227 230.681 303.581C218.362 301.936 217.139 301.106 217.139 298.223C217.139 295.833 218.152 292.697 227.264 292.697C235.392 292.697 238.43 294.483 239.667 299.953C239.817 300.525 240.173 300.82 240.736 300.839H245.869C246.216 300.82 246.492 300.708 246.698 300.502C246.923 300.248 247.017 299.958 246.98 299.63C246.164 290.18 239.92 285.778 227.25 285.778Z"/>
</mask>
<path d="M299.531 84.375C298.412 84.375 297.339 84.8195 296.548 85.6106C295.757 86.4018 295.312 87.4749 295.312 88.5938V165.895L277.791 155.672C276.708 155.034 275.475 154.697 274.219 154.697C272.962 154.697 271.729 155.034 270.647 155.672L228.544 180.225C227.463 180.842 226.566 181.735 225.944 182.812C225.321 183.889 224.995 185.112 225 186.356V235.519C225 238.05 226.35 240.384 228.544 241.65L270.647 266.203C271.729 266.841 272.962 267.178 274.219 267.178C275.475 267.178 276.708 266.841 277.791 266.203L319.894 241.65C320.974 241.033 321.871 240.14 322.494 239.063C323.116 237.986 323.442 236.763 323.438 235.519V101.672C323.435 100.445 323.112 99.2404 322.501 98.1771C321.889 97.1139 321.01 96.2292 319.95 95.6109L301.627 84.9516C300.995 84.5821 300.277 84.3834 299.545 84.375H299.531ZM161.719 154.716C160.464 154.71 159.231 155.04 158.147 155.672L116.044 180.225C114.963 180.842 114.066 181.735 113.444 182.812C112.821 183.889 112.495 185.112 112.5 186.356V235.519C112.5 238.05 113.85 240.384 116.044 241.65L158.147 266.203C160.355 267.469 163.069 267.469 165.291 266.203L207.394 241.65C208.474 241.033 209.371 240.14 209.994 239.063C210.616 237.986 210.942 236.763 210.938 235.519V186.356C210.942 185.112 210.616 183.889 209.994 182.812C209.371 181.735 208.474 180.842 207.394 180.225L165.291 155.672C164.207 155.04 162.973 154.71 161.719 154.716ZM386.719 154.716C385.464 154.71 384.231 155.04 383.147 155.672L341.044 180.225C339.963 180.842 339.066 181.735 338.444 182.812C337.821 183.889 337.495 185.112 337.5 186.356V235.519C337.5 238.05 338.85 240.384 341.044 241.65L381.881 266.33C382.962 266.982 384.198 267.331 385.459 267.341C386.721 267.351 387.963 267.021 389.053 266.386L409.134 254.714C409.607 254.436 409.998 254.039 410.27 253.563C410.542 253.087 410.686 252.548 410.686 252C410.686 251.452 410.542 250.913 410.27 250.437C409.998 249.961 409.607 249.564 409.134 249.286L365.625 223.65V198.422L386.719 186.145L407.812 198.422V216C407.812 218.348 409.781 218.714 411.103 217.927L432.45 205.509C433.51 204.891 434.389 204.006 435.001 202.943C435.612 201.88 435.935 200.675 435.938 199.448V186.37C435.942 185.126 435.616 183.903 434.994 182.826C434.371 181.749 433.474 180.856 432.394 180.239L390.291 155.686C389.207 155.054 387.973 154.724 386.719 154.73V154.716ZM49.2188 154.744C47.9641 154.738 46.7309 155.068 45.6469 155.7L3.54375 180.225C2.46889 180.855 1.5768 181.755 0.9554 182.835C0.333996 183.915 0.00471404 185.138 0 186.384L0 249.145C0 252.211 3.31875 254.109 5.9625 252.577L24.6375 241.706C25.6991 241.087 26.5797 240.2 27.1916 239.134C27.8035 238.068 28.1254 236.86 28.125 235.631V198.464L49.2188 186.159L70.3125 198.464V235.631C70.3146 236.858 70.6376 238.063 71.2494 239.126C71.8612 240.189 72.7405 241.074 73.8 241.692L92.475 252.577C93.078 252.928 93.763 253.114 94.461 253.116C95.1589 253.118 95.8449 252.936 96.4499 252.588C97.0548 252.239 97.5571 251.738 97.9061 251.133C98.2551 250.529 98.4384 249.843 98.4375 249.145V186.384C98.4328 185.138 98.1035 183.915 97.4821 182.835C96.8607 181.755 95.9686 180.855 94.8938 180.225L52.7906 155.7C51.7066 155.068 50.4734 154.738 49.2188 154.744ZM274.219 186.131L295.312 198.436V223.439L274.219 235.744L253.125 223.439V198.422L274.219 186.117V186.131ZM386.719 196.931L374.667 203.963V217.997L386.719 225L398.77 217.997V203.963L386.719 196.931ZM216.647 253.097C215.186 253.085 213.746 253.454 212.47 254.166L172.927 277.031C171.658 277.757 170.603 278.805 169.87 280.07C169.137 281.334 168.75 282.77 168.75 284.231V329.878C168.75 332.817 170.395 335.587 172.927 337.078L183.333 343.013C188.325 345.473 190.167 345.473 192.431 345.473C199.884 345.473 204.131 341.016 204.131 333.141V288.042C204.139 287.887 204.115 287.733 204.06 287.588C204.005 287.443 203.921 287.311 203.813 287.2C203.704 287.089 203.574 287.001 203.431 286.943C203.287 286.885 203.133 286.857 202.978 286.861H197.972C197.659 286.861 197.358 286.985 197.137 287.207C196.915 287.428 196.791 287.729 196.791 288.042V333.141C196.791 336.558 193.177 340.073 187.284 337.134L176.456 330.891C176.28 330.779 176.133 330.626 176.03 330.445C175.927 330.263 175.871 330.059 175.866 329.85V284.203C175.866 283.795 176.062 283.317 176.47 283.106L216.014 260.311C216.203 260.205 216.416 260.149 216.633 260.149C216.849 260.149 217.063 260.205 217.252 260.311L256.837 283.092C257.245 283.317 257.442 283.725 257.442 284.203V329.85C257.433 330.067 257.374 330.279 257.269 330.469C257.164 330.66 257.016 330.823 256.837 330.947L217.252 353.827C217.063 353.932 216.849 353.988 216.633 353.988C216.416 353.988 216.203 353.932 216.014 353.827L205.917 347.808C205.636 347.667 205.214 347.597 204.947 347.738C203.095 348.921 201.088 349.844 198.984 350.48C198.295 350.691 197.367 351.113 199.35 352.209L212.47 360.014C213.753 360.713 215.186 361.09 216.647 361.111C218.101 361.122 219.53 360.722 220.767 359.958L260.325 337.078C261.594 336.352 262.648 335.304 263.382 334.04C264.115 332.775 264.501 331.34 264.502 329.878V284.231C264.487 282.772 264.095 281.342 263.363 280.08C262.631 278.818 261.584 277.768 260.325 277.031L220.767 254.18C219.508 253.477 218.089 253.109 216.647 253.111V253.097ZM278.339 274.163C277.342 274.164 276.355 274.363 275.434 274.746C274.514 275.129 273.677 275.69 272.974 276.397C272.27 277.103 271.712 277.941 271.332 278.863C270.952 279.785 270.758 280.773 270.759 281.77C270.761 282.768 270.959 283.755 271.343 284.675C271.726 285.596 272.287 286.432 272.993 287.136C273.7 287.84 274.538 288.397 275.46 288.777C276.382 289.157 277.37 289.352 278.367 289.35C280.381 289.346 282.311 288.543 283.733 287.116C285.154 285.689 285.951 283.756 285.947 281.742C285.943 279.728 285.139 277.798 283.713 276.377C282.286 274.955 280.353 274.159 278.339 274.163ZM278.255 275.372C281.827 275.372 284.723 278.184 284.723 281.742C284.698 283.45 284.008 285.081 282.801 286.288C281.593 287.496 279.962 288.186 278.255 288.211C276.556 288.192 274.935 287.501 273.746 286.288C272.557 285.075 271.897 283.441 271.913 281.742C271.907 280.906 272.067 280.078 272.383 279.304C272.7 278.531 273.166 277.828 273.756 277.235C274.346 276.643 275.047 276.173 275.819 275.854C276.591 275.534 277.419 275.37 278.255 275.372ZM275.484 277.439V285.975H277.102V282.572H278.62C279.239 282.572 279.38 282.825 279.52 283.303C279.52 283.373 279.773 285.595 279.844 286.003H281.602C281.377 285.262 281.24 284.498 281.194 283.725C280.997 282.628 280.941 281.869 279.773 281.798C280.392 281.588 281.419 281.264 281.419 279.689C281.419 277.425 279.45 277.439 278.423 277.439H275.484ZM277.102 278.803H278.48C278.902 278.803 279.717 278.803 279.717 279.956C279.717 280.434 279.506 281.222 278.395 281.194H277.102V278.803ZM227.25 285.778C215.958 285.778 209.25 290.602 209.25 298.533C209.25 307.223 215.972 309.544 226.786 310.627C239.723 311.934 240.736 313.791 240.736 316.322C240.736 320.766 237.164 322.608 228.811 322.608C218.334 322.608 216.042 320.02 215.283 314.817C215.212 314.255 214.72 313.847 214.102 313.847H208.955C208.8 313.843 208.646 313.871 208.502 313.929C208.358 313.987 208.228 314.075 208.12 314.186C208.012 314.297 207.928 314.429 207.873 314.574C207.818 314.719 207.794 314.873 207.802 315.028C207.802 321.666 211.43 329.611 228.741 329.611C241.439 329.611 248.625 324.689 248.625 316.055C248.625 307.505 242.859 305.227 230.681 303.581C218.362 301.936 217.139 301.106 217.139 298.223C217.139 295.833 218.152 292.697 227.264 292.697C235.392 292.697 238.43 294.483 239.667 299.953C239.817 300.525 240.173 300.82 240.736 300.839H245.869C246.216 300.82 246.492 300.708 246.698 300.502C246.923 300.248 247.017 299.958 246.98 299.63C246.164 290.18 239.92 285.778 227.25 285.778Z" stroke="#C6C6C6" stroke-width="30" mask="url(#path-1-inside-1_225_30)"/>
</svg>
