<svg width="450" height="450" viewBox="0 0 450 450" fill="none" xmlns="http://www.w3.org/2000/svg">
<path d="M303.506 2.5V15.0879H275.381V23.5938H303.506V59.0186H260.188V45.5684H288.312V37.0439H260.188V2.5H303.506ZM245.512 2.5V15.0879H217.387V23.5938H245.512V59.0186H202.156V45.5684H230.281V37.0439H202.156V2.5H245.512ZM187.5 2.5V17.7129H159.375V42.9248H187.5V58.1377H144.162V2.5H187.5Z" stroke="#C9C9C9" stroke-width="5"/>
<path d="M386.313 95.9434L349.529 407.93L225.832 442.216L102.49 407.97L65.6865 95.9434H386.313ZM118.48 155.63L122.118 195.549L122.74 202.368H273.94L271.638 228.243H124.928L125.661 236.414L129.242 276.313L129.855 283.144H266.83L263.396 321.518L225.867 331.667L188.416 321.553L186.032 294.943L185.421 288.112H130.295L131.023 296.278L136.611 358.94L137.072 364.113L142.075 365.501L223.825 388.189L225.83 388.745L227.834 388.189L309.715 365.502L314.722 364.115L315.183 358.941L325.157 247.115L326.132 236.424V236.416L326.133 236.409L333.333 155.615L334.061 147.449H117.735L118.48 155.63Z" stroke="#C9C9C9" stroke-width="15"/>
</svg>
