<svg width="450" height="450" viewBox="0 0 450 450" fill="none" xmlns="http://www.w3.org/2000/svg">
<path d="M385.983 95.5L385.528 102.312L349.623 406.517L348.944 408.891L266.006 431.771L265.984 431.775L265.964 431.781L227.961 442.5H222.024L126.011 415.774L126.003 415.772L125.994 415.771L101.055 408.891L100.377 406.518L63.6113 95.5H385.983ZM117.529 155.661L127.529 268.661L127.547 268.861L127.575 269.061L129.495 282.5H265.804L262.529 319.336L262.5 319.667V321.851L258.529 322.646L258.275 322.696L258.026 322.765L226.524 331.355L221.513 330.64L187.121 321.345L186.487 310.56L186.471 310.283L186.435 310.009L184.435 295.009L183.566 288.5H130.046L130.513 296.44L131.513 313.44L131.52 313.553L131.529 313.664L135.529 358.664L135.985 363.796L140.939 365.212L175.939 375.212L175.984 375.224L218.984 387.224L219.973 387.5H229.018L229.997 387.229L305.997 366.229L306.701 366.035L307.354 365.708L309.354 364.708L312.133 363.319L314.393 356.54L314.471 355.667L324.471 243.667L324.5 243.334V228.5H178.9L176.65 201.5H327.765L328.46 194.771L331.46 165.771L331.5 165.387V147.5H116.807L117.529 155.661Z" stroke="#C9C9C9" stroke-width="15"/>
<path d="M248.622 2.5L259.887 20.335L261.943 23.5918L270.113 11.3369L270.144 11.2861L275.415 2.5H294.5V58.5H278.409L277.498 33.9072L277.199 25.8359L272.887 32.665L262.556 49.0205L259.956 46.4209L251.103 32.6484L246.797 25.9492L246.502 33.9072L245.591 58.5H230.5V2.5H248.622Z" stroke="#C9C9C9" stroke-width="5"/>
<path d="M113.5 2.5V22.5H136.5V2.5H152.5V58.5H136.5V38.5H113.5V58.5H97.5V2.5H113.5Z" stroke="#C9C9C9" stroke-width="5"/>
<path d="M217.5 2.5V18.5H199.5V58.5H183.5V18.5H165.5V2.5H217.5Z" stroke="#C9C9C9" stroke-width="5"/>
<path d="M324.5 2.5V42.5H353.5V58.5H308.5V2.5H324.5Z" stroke="#C9C9C9" stroke-width="5"/>
</svg>
