<svg width="450" height="450" viewBox="0 0 450 450" fill="none" xmlns="http://www.w3.org/2000/svg">
<g clip-path="url(#clip0_214_32)">
<path d="M224.487 12.4824C226.653 12.4825 228.798 12.91 230.799 13.7402C232.8 14.5705 234.617 15.7876 236.146 17.3213L236.153 17.3271L236.16 17.334L427.203 208.309L427.187 208.36L432.665 213.825C434.199 215.355 435.416 217.172 436.246 219.173C437.076 221.173 437.503 223.318 437.503 225.484C437.503 227.651 437.076 229.796 436.246 231.797C435.416 233.798 434.199 235.615 432.665 237.145L237.089 432.721C235.559 434.254 233.742 435.472 231.741 436.302C229.74 437.132 227.595 437.559 225.429 437.559C223.263 437.559 221.118 437.132 219.117 436.302C217.116 435.471 215.298 434.254 213.769 432.721L213.763 432.714L213.756 432.708L17.2969 236.318C14.2313 233.188 12.5137 228.981 12.5137 224.599C12.5137 220.211 14.2353 215.999 17.3076 212.868L143.144 87.0977L179.854 124.012C178.525 130.194 178.456 136.613 179.687 142.878C181.485 152.029 185.975 160.434 192.581 167.016L192.615 167.05L192.65 167.084C194.96 169.349 197.485 171.373 200.182 173.135V281.739C196.175 284.334 192.573 287.533 189.51 291.238C184.574 297.209 181.189 304.306 179.659 311.9C178.129 319.494 178.5 327.349 180.739 334.766C182.978 342.182 187.015 348.93 192.492 354.409L192.502 354.419L192.512 354.428C201.351 363.232 213.319 368.175 225.795 368.175C238.271 368.175 250.238 363.232 259.077 354.428L259.101 354.405L259.123 354.383C277.382 336.009 277.349 306.414 259.146 288.001L259.095 287.95L258.388 287.258C256.868 285.803 255.264 284.471 253.602 283.262V197.952L273.679 217.933C272.435 224.086 272.428 230.455 273.692 236.664C275.536 245.717 280.003 254.028 286.535 260.562V260.562C290.892 264.928 296.068 268.393 301.766 270.756C307.463 273.119 313.571 274.335 319.739 274.335C325.908 274.335 332.015 273.119 337.713 270.756C343.41 268.393 348.586 264.928 352.943 260.562L352.942 260.562C371.376 242.189 371.373 212.435 352.906 194.083H352.905C346.693 187.862 338.855 183.514 330.287 181.54C324.385 180.181 318.302 179.984 312.372 180.935L272.474 140.98C274.692 126.716 270.345 111.536 259.249 100.44C253.071 94.2394 245.279 89.8937 236.756 87.8984C230.885 86.5242 224.83 86.3019 218.922 87.2168L180.928 49.2744L212.823 17.3242L212.827 17.3213C214.357 15.7876 216.174 14.5705 218.175 13.7402C220.176 12.91 222.321 12.4824 224.487 12.4824Z" stroke="#C9C9C9" stroke-width="25"/>
</g>
<defs>
<clipPath id="clip0_214_32">
<rect width="450" height="450" fill="white"/>
</clipPath>
</defs>
</svg>
