<svg width="450" height="450" viewBox="0 0 450 450" fill="none" xmlns="http://www.w3.org/2000/svg">
<path d="M365.625 98.4375C404.456 98.4375 435.938 79.5563 435.938 56.25C435.938 32.9437 404.456 14.0625 365.625 14.0625C326.794 14.0625 295.312 32.9437 295.312 56.25C295.312 79.5563 326.794 98.4375 365.625 98.4375Z" stroke="#C9C9C9" stroke-width="15" stroke-linecap="round" stroke-linejoin="round"/>
<path d="M295.312 56.25V140.625C295.312 163.913 326.794 182.812 365.625 182.812C404.456 182.812 435.938 163.913 435.938 140.625V56.25M365.625 351.562C404.456 351.562 435.938 332.681 435.938 309.375C435.938 286.069 404.456 267.188 365.625 267.188C326.794 267.188 295.312 286.069 295.312 309.375C295.312 332.681 326.794 351.562 365.625 351.562Z" stroke="#C9C9C9" stroke-width="15" stroke-linecap="round" stroke-linejoin="round"/>
<path d="M295.312 309.375V393.75C295.312 417.038 326.794 435.938 365.625 435.938C404.456 435.938 435.938 417.038 435.938 393.75V309.375M20.0625 262.5H243.75M20.0625 187.5H243.75M133.594 344.531C165.295 344.531 195.699 331.938 218.115 309.521C240.532 287.105 253.125 256.702 253.125 225C253.125 193.298 240.532 162.895 218.115 140.479C195.699 118.062 165.295 105.469 133.594 105.469C101.892 105.469 71.4888 118.062 49.0724 140.479C26.6559 162.895 14.0625 193.298 14.0625 225C14.0625 256.702 26.6559 287.105 49.0724 309.521C71.4888 331.938 101.892 344.531 133.594 344.531Z" stroke="#C9C9C9" stroke-width="15" stroke-linecap="round" stroke-linejoin="round"/>
<path d="M107.812 108.263C86.3646 185.671 89.523 267.835 116.85 343.369M159.375 108.263C168.747 141.95 173.478 176.758 173.437 211.725C173.506 256.608 165.713 301.156 150.412 343.35M187.5 56.25V28.125H243.75M187.5 393.75V421.875H243.75" stroke="#C9C9C9" stroke-width="15" stroke-linecap="round" stroke-linejoin="round"/>
</svg>
