<svg width="450" height="450" viewBox="0 0 450 450" fill="none" xmlns="http://www.w3.org/2000/svg">
<path d="M115.781 193.744C93.1315 201.394 79.1252 211.931 79.1252 223.613C79.1252 239.513 105.169 253.369 143.625 260.55C129.338 267.788 120.806 276.956 120.806 286.95C120.806 310.256 167.438 329.156 224.963 329.156C238.931 329.184 252.876 328.011 266.644 325.65M143.644 260.569C163.608 264.133 183.852 265.89 204.131 265.819C236.156 265.819 265.35 261.769 287.475 255.075M308.288 189.825C281.831 197.644 244.931 202.5 204.131 202.5C123.6 202.5 58.2939 183.6 58.2939 160.275C58.2939 142.275 97.2377 126.9 152.044 120.825" stroke="#C9C9C9" stroke-width="25" stroke-linecap="round" stroke-linejoin="round"/>
<path d="M412.5 357.562C412.5 387.9 328.556 412.5 225 412.5C121.444 412.5 37.5 387.9 37.5 357.562C37.5 336 69.5063 317.325 131.25 308.325M351.75 164.775C430.763 144.263 442.05 267.3 329.156 308.325M329.213 37.5C315.338 39.8063 289.219 52.7812 295.875 86.1187C302.55 119.437 293.1 137.044 287.55 141.675M245.869 37.5C231.975 40.275 205.856 55.8375 212.531 95.8313C219.206 135.825 209.756 146.531 204.206 152.081" stroke="#C9C9C9" stroke-width="25" stroke-linecap="round" stroke-linejoin="round"/>
</svg>
