<svg width="450" height="450" viewBox="0 0 450 450" fill="none" xmlns="http://www.w3.org/2000/svg">
<path d="M22.5547 251.25C26.831 284.016 39.0021 315.293 58.0635 342.368C78.4352 371.305 105.978 394.45 137.99 409.534L142.742 411.773L146.471 408.073L166.104 388.587L219.955 442.438C111.111 439.867 22.2018 357.312 9.4248 251.25H22.5547ZM157.5 157.5C163.692 157.5 169.31 158.328 174.379 159.783C179.318 161.444 183.233 163.595 185.896 166.125L186.099 166.316L186.313 166.492C188.459 168.248 189.378 169.034 190.254 170.136C191.119 171.224 192.169 172.933 193.731 176.579C195.515 180.742 196.5 185.709 196.5 191.625C196.5 193.989 196.206 196.221 195.529 198.388C194.801 200.719 193.795 202.878 192.329 205.079C188.989 210.07 184.306 214.017 178.82 216.463L161.191 224.323L179.503 230.428C183.362 231.714 186.302 233.224 188.674 235.021C191.288 237.156 193.197 239.155 194.452 241.162L194.513 241.259L194.576 241.354C196.072 243.592 197.186 246.063 197.874 248.666L197.886 248.712L197.898 248.758C198.614 251.332 198.938 254.195 198.938 257.25C198.938 262.988 197.83 267.937 195.844 272.369C193.902 276.701 191.069 280.288 187.599 283.155C184.098 286.047 179.728 288.419 174.575 290.029L174.543 290.039L174.51 290.05C169.553 291.649 163.783 292.5 157.5 292.5C151.871 292.5 146.677 291.674 141.872 290.072L141.732 290.026L141.591 289.985L140.68 289.709C136.218 288.302 132.303 286.233 128.767 283.604C125.257 280.676 122.395 277.184 120.283 273.11C119.24 271.098 118.437 268.813 117.909 266.25H127.438C127.781 267.649 128.228 269.019 128.786 270.347V270.348C130.366 274.297 132.732 277.437 135.49 279.966V279.967C135.502 279.978 135.514 279.988 135.525 279.999C135.544 280.016 135.562 280.033 135.58 280.05V280.049C138.493 282.761 141.948 284.826 145.718 286.104L145.753 286.115C149.378 287.323 153.558 288 157.875 288C166.542 288 174.713 285.824 180.886 279.718C187.056 274 189.75 265.985 189.75 256.875C189.75 252.124 189.111 247.444 187.246 243.182C185.46 239.1 182.919 235.83 180.006 233.159L179.875 233.039L179.739 232.926L179.147 232.446C176.151 230.087 172.577 228.279 168.508 227.148C164.271 225.971 159.796 225.563 155.25 225.562H148.312V221.25H155.25C159.983 221.25 164.681 220.614 168.759 219.085C172.434 217.707 175.94 215.765 178.857 213.112C181.635 210.588 184.181 207.299 185.615 202.997C186.786 199.486 187.5 195.686 187.5 191.438C187.5 183.25 185.287 175.797 180.123 170.28H180.124C180.083 170.235 180.041 170.191 180 170.146H179.999C174.45 164.113 166.402 162 157.875 162C153.577 162 149.961 162.732 146.503 163.885C142.507 165.217 139.452 167.315 137.001 169.32C135.823 170.284 134.533 171.406 133.293 173.038C132.105 174.603 131.182 176.345 130.253 178.357C129.644 179.676 129.164 181.039 128.797 182.438H119.348C119.782 180.628 120.379 178.907 121.136 177.25C123.123 173.306 125.696 169.974 128.907 167.056C132.207 164.223 136.405 161.852 141.303 160.053C146.17 158.332 151.476 157.5 157.5 157.5ZM269.25 157.5C278.533 157.5 286.738 159.044 293.973 162.004C301.255 164.983 307.517 169.269 312.804 174.721C318.033 180.114 322.168 186.693 325.01 194.551C327.876 202.474 329.437 211.353 329.438 221.438V228.938C329.438 239.001 327.882 247.864 325.027 255.775C322.183 263.471 318.041 270.066 312.804 275.467C307.629 280.804 301.239 284.939 293.652 287.974C286.227 290.944 277.63 292.5 268.125 292.5H232.5V157.5H269.25ZM243.75 286.688H268.312C276.061 286.688 283.248 285.429 289.742 282.742L289.786 282.725L289.829 282.706C296.169 279.989 301.641 275.891 305.97 270.651C310.338 265.363 313.355 258.951 315.428 252.112L315.466 251.985L315.5 251.856C317.362 244.823 318.375 237.238 318.375 228.75V221.25C318.375 203.958 314.61 189.621 305.97 179.161H305.969C297.286 168.418 284.602 163.5 269.438 163.5H243.75V286.688ZM230.419 7.56152C339.268 10.1314 428.164 92.6866 440.774 198.562H427.656C418.733 128.324 374.036 69.5007 312.4 40.2852L307.623 38.0205L303.884 41.7588L284.25 61.3926L230.419 7.56152Z" stroke="#C9C9C9" stroke-width="15"/>
</svg>
